# xmcd CD database file
#
# Track frame offsets:
#	150
#	106241
#	196782
#
# Disc length: 3776 seconds
#
# Revision: 0
# Processed by: cddbd v1.5.2PL0 Copyright (c) Steve Scherf et al.
# Submitted via: CDex 1.51
#
DISCID=1b0ebe03
DTITLE=Made to Break - Provoke
DYEAR=2013
DGENRE=Jazz
TTITLE0=Further (for John Cage)
TTITLE1=Presentation (for Buckminster Fuller)
TTITLE2=of the facts. (for Marshall Mcluhan)
EXTD=YEAR: 2013
EXTT0=
EXTT1=
EXTT2=
PLAYORDER=
